<svg xmlns="http://www.w3.org/2000/svg" viewBox="0 0 18.39 18.42"><g id="Capa_2" data-name="Capa 2"><g id="Capa_1-2" data-name="Capa 1"><path d="M18.14,4.44a.34.34,0,0,0-.06-.12.2.2,0,0,0-.28,0L9.35,12.75A.66.66,0,0,1,9,13L5.18,14a.59.59,0,0,1-.37,0A.73.73,0,0,1,4.27,13l1-3.83a.66.66,0,0,1,.2-.34L13.79.55a.23.23,0,0,0,.06-.12.2.2,0,0,0-.18-.22A47.75,47.75,0,0,0,4,.29,4.13,4.13,0,0,0,.31,3.9a45.91,45.91,0,0,0,0,10.61A4.14,4.14,0,0,0,4,18.13a48.13,48.13,0,0,0,10.46,0,4.15,4.15,0,0,0,3.65-3.62A45.82,45.82,0,0,0,18.14,4.44Z"/><path d="M6.66,9.85l-.5,1.92a.24.24,0,0,0,0,.12.25.25,0,0,0,.3.18l1.92-.5a.24.24,0,0,0,.11-.06l8.29-8.3h0a.24.24,0,0,0,0-.35L15.37,1.45a.24.24,0,0,0-.35,0L6.73,9.74A.19.19,0,0,0,6.66,9.85Z"/></g></g></svg>