<svg xmlns="http://www.w3.org/2000/svg" viewBox="0 0 18.75 19.25"><g id="Capa_2" data-name="Capa 2"><g id="Capa_1-2" data-name="Capa 1"><circle cx="2.13" cy="2.13" r="2.13"/><rect y="6" width="4.25" height="13.25" rx="0.13"/><path d="M14.58,6.38l-.36,0A7.08,7.08,0,0,0,12.06,7l-1.31.56V6.12A.13.13,0,0,0,10.62,6h-4a.13.13,0,0,0-.12.12v13a.13.13,0,0,0,.12.13h4a.13.13,0,0,0,.13-.13v-7a1.88,1.88,0,0,1,3.75,0v7a.13.13,0,0,0,.12.13h4a.13.13,0,0,0,.13-.13V10.51A4.15,4.15,0,0,0,14.58,6.38Z"/></g></g></svg>