<svg xmlns="http://www.w3.org/2000/svg" viewBox="0 0 17.55 17.05"><g id="Capa_2" data-name="Capa 2"><g id="Capa_1-2" data-name="Capa 1"><path d="M9.48,0H9.16a8.29,8.29,0,0,0-4,1A8.49,8.49,0,0,0,.82,7.42a8.21,8.21,0,0,0,.58,4.13l.93,2.29a.25.25,0,0,1-.08.29l-2,1.59A.72.72,0,0,0,0,16.3a.76.76,0,0,0,.75.75H8.57a9,9,0,0,0,9-9A8.07,8.07,0,0,0,9.48,0ZM8.57,15.55H2.88l.31-.25a1.77,1.77,0,0,0,.53-2L2.78,11A6.87,6.87,0,0,1,5.84,2.35,6.67,6.67,0,0,1,9.16,1.5h.32a6.57,6.57,0,0,1,6.57,6.57A7.49,7.49,0,0,1,8.57,15.55Z"/></g></g></svg>