<svg xmlns="http://www.w3.org/2000/svg" viewBox="0 0 18.39 18.41"><g id="Capa_2" data-name="Capa 2"><g id="Capa_1-2" data-name="Capa 1"><circle cx="9.19" cy="9.21" r="3.25"/><path d="M18.08,3.9A4.14,4.14,0,0,0,14.42.29,46.9,46.9,0,0,0,4,.29,4.18,4.18,0,0,0,1.51,1.46,4.11,4.11,0,0,0,.31,3.9a45.91,45.91,0,0,0,0,10.61A4.05,4.05,0,0,0,1.51,17,4.17,4.17,0,0,0,4,18.13a45.82,45.82,0,0,0,5.23.28,45.58,45.58,0,0,0,5.23-.28A4.19,4.19,0,0,0,16.88,17a4.11,4.11,0,0,0,1.2-2.44A45.91,45.91,0,0,0,18.08,3.9ZM9.19,14a4.75,4.75,0,1,1,4.75-4.75A4.75,4.75,0,0,1,9.19,14Zm5-8.75a1,1,0,1,1,1-1A1,1,0,0,1,14.19,5.21Z"/></g></g></svg>