<svg xmlns="http://www.w3.org/2000/svg" viewBox="0 0 19.5 19.5"><g id="Capa_2" data-name="Capa 2"><g id="Capa_1-2" data-name="Capa 1"><path d="M11.08,6a.2.2,0,0,0,.25.09,27.4,27.4,0,0,0,5.45-2.77.19.19,0,0,0,0-.27l0,0A9.76,9.76,0,0,0,7.61.24a.2.2,0,0,0-.15.24.16.16,0,0,0,0,.07A42,42,0,0,1,11.08,6Z"/><path d="M.43,7.81c.41,0,.81,0,1.23,0A27.72,27.72,0,0,0,9.49,6.71h0a.2.2,0,0,0,.08-.28A40.39,40.39,0,0,0,5.9,1,.2.2,0,0,0,5.67.89,9.78,9.78,0,0,0,.24,7.58v0A.19.19,0,0,0,.43,7.81Z"/><path d="M11.28,10.27a.2.2,0,0,0,.1-.27c-.27-.63-.57-1.25-.87-1.86a.2.2,0,0,0-.24-.1,29.29,29.29,0,0,1-8.62,1.3c-.48,0-1,0-1.44,0h0A.2.2,0,0,0,0,9.49v.26A9.75,9.75,0,0,0,2.24,16l0,0a.2.2,0,0,0,.28,0,16.65,16.65,0,0,1,8.7-5.69Z"/><path d="M11.89,11.66a15.29,15.29,0,0,0-8.3,5.4.2.2,0,0,0,0,.28,9.76,9.76,0,0,0,10.28,1.23.2.2,0,0,0,.11-.22,40.35,40.35,0,0,0-1.9-6.56A.2.2,0,0,0,11.89,11.66Z"/><path d="M19.13,11.64a15.12,15.12,0,0,0-5.32-.32h0a.2.2,0,0,0-.12.26,40.16,40.16,0,0,1,1.7,5.8l0,.06a.19.19,0,0,0,.28.05,9.74,9.74,0,0,0,3.61-5.63A.19.19,0,0,0,19.13,11.64Z"/><path d="M18,4.55a.19.19,0,0,0-.28,0,29.63,29.63,0,0,1-5.65,2.92h0a.2.2,0,0,0-.09.27c.34.68.66,1.38,1,2.08a.2.2,0,0,0,.22.12,17,17,0,0,1,6.12.24h0a.19.19,0,0,0,.21-.19V9.75A9.77,9.77,0,0,0,18,4.55Z"/></g></g></svg>