<svg xmlns="http://www.w3.org/2000/svg" viewBox="0 0 15.5 17"><g id="Capa_2" data-name="Capa 2"><g id="Capa_1-2" data-name="Capa 1"><path d="M14.75,12.5a.76.76,0,0,0-.75.75v2a.25.25,0,0,1-.25.25h-12a.25.25,0,0,1-.25-.25v-2a.76.76,0,0,0-.75-.75.76.76,0,0,0-.75.75v2A1.75,1.75,0,0,0,1.75,17h12a1.75,1.75,0,0,0,1.75-1.75v-2A.76.76,0,0,0,14.75,12.5Z"/><path d="M6.64,11.76l.6.43a.89.89,0,0,0,1,0l.6-.43a15.57,15.57,0,0,0,4-4.26.76.76,0,0,0-.59-1.17l-1.49-.11-.74,0A37.07,37.07,0,0,0,10,.91,1,1,0,0,0,9,0H6.49a1,1,0,0,0-1,.91,37.07,37.07,0,0,0-.08,5.27l-.74,0-1.49.11A.76.76,0,0,0,2.6,7.5,15.46,15.46,0,0,0,6.64,11.76Z"/></g></g></svg>