<svg xmlns="http://www.w3.org/2000/svg" viewBox="0 0 21 14"><g id="Capa_2" data-name="Capa 2"><g id="Capa_1-2" data-name="Capa 1"><path d="M8.64,6.36h0A3.21,3.21,0,0,0,10,5.25a3.08,3.08,0,0,0,.45-1.75,3.85,3.85,0,0,0-.3-1.64A2.68,2.68,0,0,0,9.32.75,3.26,3.26,0,0,0,8,.18,7.29,7.29,0,0,0,6.37,0H.3A.29.29,0,0,0,0,.3V13.64a.29.29,0,0,0,.3.3H6.41a6.66,6.66,0,0,0,1.72-.23A4.62,4.62,0,0,0,9.63,13a3.37,3.37,0,0,0,1-1.26,3.87,3.87,0,0,0,.39-1.83,4,4,0,0,0-.6-2.22A3.18,3.18,0,0,0,8.64,6.36ZM2.85,2.45a.2.2,0,0,1,.2-.2h2.8a1.75,1.75,0,0,1,0,3.5H3.05a.2.2,0,0,1-.2-.2ZM6,11.75H3.05a.2.2,0,0,1-.2-.2V7.7a.2.2,0,0,1,.2-.2H6a2.13,2.13,0,1,1,0,4.25Z"/><path d="M13.94,2.27h4.73A.29.29,0,0,0,19,2V1a.29.29,0,0,0-.3-.3H13.94a.29.29,0,0,0-.3.3V2A.29.29,0,0,0,13.94,2.27Z"/><path d="M20.55,10.62H18.63a.22.22,0,0,0-.2.13,1.63,1.63,0,0,1-.59.71,2.25,2.25,0,0,1-1.3.41h-.07a2.19,2.19,0,0,1-.95-.1,2.15,2.15,0,0,1-.83-.5A2.81,2.81,0,0,1,14,9.32H21a7.8,7.8,0,0,0-.17-2.21A5.79,5.79,0,0,0,20,5.19a4.45,4.45,0,0,0-1.49-1.34,4.35,4.35,0,0,0-2-.5h-.11a4.92,4.92,0,0,0-2,.41,4.78,4.78,0,0,0-1.54,1.1,5,5,0,0,0-1,1.69,6.36,6.36,0,0,0-.34,2.12,6.23,6.23,0,0,0,.34,2.14,4.85,4.85,0,0,0,.92,1.7,4.22,4.22,0,0,0,1.53,1.11,5.2,5.2,0,0,0,1.94.38h.25a4.79,4.79,0,0,0,2.62-.78,4.61,4.61,0,0,0,1.63-2.36.18.18,0,0,0,0-.16A.21.21,0,0,0,20.55,10.62ZM16.12,5.38h.21a2,2,0,0,1,2,2,.11.11,0,0,1-.1.1H14.2a.1.1,0,0,1-.1-.1A2,2,0,0,1,16.12,5.38Z"/></g></g></svg>